.
 
http://www.scenetime.com    -   SceneTime [ We been having it ] !!!


How come you press harder on a remote control when you know the battery is dead? so you better seed to get speed ;)

        Seed back for speed


...................................NFO:.................................................
 ______ ______                         ______              ___________
 ___  /____  /___  ______________      ___  /________________  /___  /_____________________ ______________ _
 __  __ \_  /_  / / /  _ \_  ___/________  __ \_  ___/  __ \  __/_  __ \  _ \_  ___/_  ___/ __  ___/_  __ `/
 _  /_/ /  / / /_/ //  __/(__  )_/_____/  /_/ /  /   / /_/ / /_ _  / / /  __/  /   _(__  )___  /   _  /_/ /
 /_.___//_/  \__,_/ \___//____/        /_.___//_/    \____/\__/ /_/ /_/\___//_/    /____/_(_)_/    _\__, /
                                                                                                   /____/
                                     ___________                    ___________
                              ______ ___  /__  /____  _____________ __  /__<  /
                              _  __ `/_  /__  /__  / / /  ___/  __ `/  __/_  /
                              / /_/ /_  / _  / _  /_/ // /__ / /_/ // /_ _  /
                              \__,_/ /_/  /_/  _\__, / \___/ \__,_/ \__/ /_/
                                               /____/






General
RELEASE DATE 18/7/2011
Complete name                    : THE.PATRIOT.2000.720p.BRRip.XVID.AC3_allycat.BBRG.avi
Format                           : AVI
Format/Info                      : Audio Video Interleave
File size                        : 1.65 GiB
Duration                         : 2h 55mn
Overall bit rate                 : 1 353 Kbps

Video
ID                               : 0
Format                           : MPEG-4 Visual
Format profile                   : Advanced Simple@L5
Format settings, BVOP            : 2
Format settings, QPel            : Yes
Format settings, GMC             : No warppoints
Format settings, Matrix          : Default (H.263)
Codec ID                         : XVID
Codec ID/Hint                    : XviD
Duration                         : 2h 55mn
Bit rate                         : 897 Kbps
Width                            : 720 pixels
Height                           : 320 pixels
Display aspect ratio             : 2.25:1
Frame rate                       : 23.976 fps
Color space                      : YUV
Chroma subsampling               : 4:2:0
Bit depth                        : 8 bits
Scan type                        : Progressive
Compression mode                 : Lossy
Bits/(Pixel*Frame)               : 0.162
Stream size                      : 1.10 GiB (66%)
Writing library                  : XviD 1.2.1 (UTC 2008-12-04)

Audio
ID                               : 1
Format                           : AC-3
Format/Info                      : Audio Coding 3
Mode extension                   : CM (complete main)
Codec ID                         : 2000
Duration                         : 2h 55mn
Bit rate mode                    : Constant
Bit rate                         : 448 Kbps
Channel(s)                       : 6 channels
Channel positions                : Front: L C R, Side: L R, LFE
Sampling rate                    : 48.0 KHz
Bit depth                        : 16 bits
Compression mode                 : Lossy
Stream size                      : 561 MiB (33%)
Alignment                        : Aligned on interleaves
Interleave, duration             : 64 ms (1.53 video frames)
Interleave, preload duration     : 192 ms